<svg xmlns="http://www.w3.org/2000/svg" viewBox="0 0 900 600">
  <polygon fill="#ffffff" points="0,0 900,0 900,600 0,600"/>
  <path fill="#012169" d="M900 99.94l-166.29 99.78 166.29 0 0 -99.78zm-833.44 -99.94l283.13 0 0 169.88 -283.13 -169.88zm483.7 0l283.13 0 -283.13 169.88 0 -169.88zm349.74 400.21l0 99.86 -166.42 -99.85 166.42 -0zm-66.6 199.79l-283.13 0 0 -169.88 283.13 169.88zm-483.7 0l-283.13 0 283.13 -169.88 0 169.88zm-349.7 -100.03l0 -99.75 166.25 0 -166.25 99.75zm0 -300.32l0 -99.75 166.25 99.75 -166.25 0z"/>
  <polygon fill="#C8102E" points="369.75,239.83 0,239.83 0,360.17 389.81,360.17 389.81,600 510.15,600 510.15,360.25 900,360.25 900,239.83 510.15,239.83 510.15,0 389.81,0 389.81,239.83"/>
  <path fill="#C8102E" d="M349.7 406.8l-322 193.2 -27.7 0 0 -45.55 257 -154.16 92.72 0 0 6.52zm522.93 -406.81l27.61 0 0 45.62 -256.86 154.09 -92.87 0 0 -6.44 322.12 -193.27zm27.61 523.38l0 62.18 -308.95 -185.35 103.67 -0.01 205.28 123.18zm-900 -446.66l0 -62.18 308.66 185.17 -103.67 0 -204.99 -122.99z"/>
</svg>